<?xml version="1.0" encoding="UTF-8"?>
<svg xmlns="http://www.w3.org/2000/svg"
     xmlns:xlink="http://www.w3.org/1999/xlink"
     xmlns:gadfly="http://www.gadflyjl.org/ns"
     version="1.2"
     width="500mm" height="500mm" viewBox="0 0 500 500"
     stroke="none"
     fill="#000000"
     stroke-width="0.3"
     font-size="3.88"
>
<defs>
  <marker id="arrow" markerWidth="15" markerHeight="7" refX="5" refY="3.5" orient="auto" markerUnits="strokeWidth">
    <path d="M0,0 L15,3.5 L0,7 z" stroke="context-stroke" fill="context-stroke"/>
  </marker>
</defs>
<g class="plotroot xscalable yscalable" id="img-d93030c8-1">
  <g font-size="3.88" font-family="'PT Sans','Helvetica Neue','Helvetica',sans-serif" fill="#564A55" stroke="#000000" stroke-opacity="0.000" id="img-d93030c8-2">
    <g transform="translate(231.11,457.26)">
      <g class="primitive">
        <text text-anchor="middle" dy="0.6em">latest_seed</text>
      </g>
    </g>
  </g>
  <g class="guide xlabels" font-size="2.82" font-family="'PT Sans Caption','Helvetica Neue','Helvetica',sans-serif" fill="#6C606B" id="img-d93030c8-3">
    <g transform="translate(26.38,450.59)">
      <g class="primitive">
        <text text-anchor="middle" dy="0.6em">0</text>
      </g>
    </g>
    <g transform="translate(162.87,450.59)">
      <g class="primitive">
        <text text-anchor="middle" dy="0.6em">1×10⁹</text>
      </g>
    </g>
    <g transform="translate(299.36,450.59)">
      <g class="primitive">
        <text text-anchor="middle" dy="0.6em">2×10⁹</text>
      </g>
    </g>
    <g transform="translate(435.85,450.59)">
      <g class="primitive">
        <text text-anchor="middle" dy="0.6em">3×10⁹</text>
      </g>
    </g>
  </g>
  <g class="guide colorkey" id="img-d93030c8-4">
    <g fill="#4C404B" font-size="2.82" font-family="'PT Sans','Helvetica Neue','Helvetica',sans-serif" id="img-d93030c8-5">
      <g transform="translate(441.66,242.86)" id="img-d93030c8-6" class="color_linear_approximation_f(x)_=_0.447644_+_1.0*x">
        <g class="primitive">
          <text dy="0.35em">linear approximation f(x) = 0.447644 + 1.0*x</text>
        </g>
      </g>
      <g transform="translate(441.66,246.48)" id="img-d93030c8-7" class="color_approx._with_a_polynomial_of_degree_47">
        <g class="primitive">
          <text dy="0.35em">approx. with a polynomial of degree 47</text>
        </g>
      </g>
    </g>
    <g fill-opacity="1" id="img-d93030c8-8">
      <g transform="translate(439.75,242.86)" id="img-d93030c8-9" stroke="#FFFFFF" fill="#00BFFF" class="color_linear_approximation_f(x)_=_0.447644_+_1.0*x">
        <path d="M-0.91,-0.91 L0.91,-0.91 0.91,0.91 -0.91,0.91  z" class="primitive"/>
      </g>
      <g transform="translate(439.75,246.48)" id="img-d93030c8-10" stroke="#FFFFFF" fill="#D4CA3A" class="color_approx._with_a_polynomial_of_degree_47">
        <path d="M-0.91,-0.91 L0.91,-0.91 0.91,0.91 -0.91,0.91  z" class="primitive"/>
      </g>
    </g>
    <g fill="#362A35" font-size="3.88" font-family="'PT Sans','Helvetica Neue','Helvetica',sans-serif" stroke="#000000" stroke-opacity="0.000" id="img-d93030c8-11">
      <g transform="translate(438.85,239.04)" id="img-d93030c8-12">
        <g class="primitive">
          <text dy="-0em">Color</text>
        </g>
      </g>
    </g>
  </g>
  <g clip-path="url(#img-d93030c8-13)">
    <g id="img-d93030c8-14">
      <g pointer-events="visible" stroke-width="0.3" fill="#000000" fill-opacity="0.000" stroke="#000000" stroke-opacity="0.000" class="guide background" id="img-d93030c8-15">
        <g transform="translate(231.11,242.86)" id="img-d93030c8-16">
          <path d="M-206.73,-206.73 L206.73,-206.73 206.73,206.73 -206.73,206.73  z" class="primitive"/>
        </g>
      </g>
      <g class="guide ygridlines xfixed" stroke-dasharray="0.5,0.5" stroke-width="0.2" stroke="#D0D0E0" id="img-d93030c8-17">
        <g transform="translate(231.11,447.59)" id="img-d93030c8-18">
          <path fill="none" d="M-206.73,0 L206.73,0 " class="primitive"/>
        </g>
        <g transform="translate(231.11,311.1)" id="img-d93030c8-19">
          <path fill="none" d="M-206.73,0 L206.73,0 " class="primitive"/>
        </g>
        <g transform="translate(231.11,174.61)" id="img-d93030c8-20">
          <path fill="none" d="M-206.73,0 L206.73,0 " class="primitive"/>
        </g>
        <g transform="translate(231.11,38.12)" id="img-d93030c8-21">
          <path fill="none" d="M-206.73,0 L206.73,0 " class="primitive"/>
        </g>
      </g>
      <g class="guide xgridlines yfixed" stroke-dasharray="0.5,0.5" stroke-width="0.2" stroke="#D0D0E0" id="img-d93030c8-22">
        <g transform="translate(26.38,242.86)" id="img-d93030c8-23">
          <path fill="none" d="M0,-206.73 L0,206.73 " class="primitive"/>
        </g>
        <g transform="translate(162.87,242.86)" id="img-d93030c8-24">
          <path fill="none" d="M0,-206.73 L0,206.73 " class="primitive"/>
        </g>
        <g transform="translate(299.36,242.86)" id="img-d93030c8-25">
          <path fill="none" d="M0,-206.73 L0,206.73 " class="primitive"/>
        </g>
        <g transform="translate(435.85,242.86)" id="img-d93030c8-26">
          <path fill="none" d="M0,-206.73 L0,206.73 " class="primitive"/>
        </g>
      </g>
      <g class="plotpanel" id="img-d93030c8-27">
        <metadata>
          <boundingbox value="24.37833333333333mm 36.123333333333306mm 413.46833333333336mm 413.46833333333336mm"/>
          <unitbox value="-1.4653147781065691e7 3.0146531477810655e9 3.029306295562132e9 -3.029306295562132e9"/>
        </metadata>
        <g stroke-width="0.3" fill="#000000" fill-opacity="0.000" class="geometry" id="img-d93030c8-28">
          <g transform="translate(172.93,301.04)" id="img-d93030c8-29" stroke-dasharray="none" class="color_linear_approximation_f(x)_=_0.447644_+_1.0*x" stroke="#00BFFF">
            <path fill="none" d="M-146.55,146.55 L-145.38,145.38 -144.2,144.2 -143.02,143.02 -141.85,141.85 -140.67,140.67 -139.49,139.49 -138.31,138.31 -137.14,137.14 -135.96,135.96 -134.78,134.78 -133.61,133.61 -132.43,132.43 -131.25,131.25 -130.07,130.07 -128.9,128.9 -127.72,127.72 -126.54,126.54 -125.37,125.37 -124.19,124.19 -123.01,123.01 -121.83,121.83 -120.66,120.66 -119.48,119.48 -118.3,118.3 -117.13,117.13 -115.95,115.95 -114.77,114.77 -113.59,113.59 -112.42,112.42 -111.24,111.24 -110.06,110.06 -108.89,108.89 -107.71,107.71 -106.53,106.53 -105.35,105.35 -104.18,104.18 -103,103 -101.82,101.82 -100.65,100.65 -99.47,99.47 -98.29,98.29 -97.11,97.11 -95.94,95.94 -94.76,94.76 -93.58,93.58 -92.41,92.41 -91.23,91.23 -90.05,90.05 -88.87,88.87 -87.7,87.7 -86.52,86.52 -85.34,85.34 -84.17,84.17 -82.99,82.99 -81.81,81.81 -80.63,80.63 -79.46,79.46 -78.28,78.28 -77.1,77.1 -75.93,75.93 -74.75,74.75 -73.57,73.57 -72.39,72.39 -71.22,71.22 -70.04,70.04 -68.86,68.86 -67.69,67.69 -66.51,66.51 -65.33,65.33 -64.15,64.15 -62.98,62.98 -61.8,61.8 -60.62,60.62 -59.45,59.45 -58.27,58.27 -57.09,57.09 -55.91,55.91 -54.74,54.74 -53.56,53.56 -52.38,52.38 -51.21,51.21 -50.03,50.03 -48.85,48.85 -47.67,47.67 -46.5,46.5 -45.32,45.32 -44.14,44.14 -42.97,42.97 -41.79,41.79 -40.61,40.61 -39.43,39.43 -38.26,38.26 -37.08,37.08 -35.9,35.9 -34.73,34.73 -33.55,33.55 -32.37,32.37 -31.19,31.19 -30.02,30.02 -28.84,28.84 -27.66,27.66 -26.49,26.49 -25.31,25.31 -24.13,24.13 -22.95,22.95 -21.78,21.78 -20.6,20.6 -19.42,19.42 -18.25,18.25 -17.07,17.07 -15.89,15.89 -14.71,14.71 -13.54,13.54 -12.36,12.36 -11.18,11.18 -10.01,10.01 -8.83,8.83 -7.65,7.65 -6.47,6.47 -5.3,5.3 -4.12,4.12 -2.94,2.94 -1.77,1.77 -0.59,0.59 0.59,-0.59 1.77,-1.77 2.94,-2.94 4.12,-4.12 5.3,-5.3 6.47,-6.47 7.65,-7.65 8.83,-8.83 10.01,-10.01 11.18,-11.18 12.36,-12.36 13.54,-13.54 14.71,-14.71 15.89,-15.89 17.07,-17.07 18.25,-18.25 19.42,-19.42 20.6,-20.6 21.78,-21.78 22.95,-22.95 24.13,-24.13 25.31,-25.31 26.49,-26.49 27.66,-27.66 28.84,-28.84 30.02,-30.02 31.19,-31.19 32.37,-32.37 33.55,-33.55 34.73,-34.73 35.9,-35.9 37.08,-37.08 38.26,-38.26 39.43,-39.43 40.61,-40.61 41.79,-41.79 42.97,-42.97 44.14,-44.14 45.32,-45.32 46.5,-46.5 47.67,-47.67 48.85,-48.85 50.03,-50.03 51.21,-51.21 52.38,-52.38 53.56,-53.56 54.74,-54.74 55.91,-55.91 57.09,-57.09 58.27,-58.27 59.45,-59.45 60.62,-60.62 61.8,-61.8 62.98,-62.98 64.15,-64.15 65.33,-65.33 66.51,-66.51 67.69,-67.69 68.86,-68.86 70.04,-70.04 71.22,-71.22 72.39,-72.39 73.57,-73.57 74.75,-74.75 75.93,-75.93 77.1,-77.1 78.28,-78.28 79.46,-79.46 80.63,-80.63 81.81,-81.81 82.99,-82.99 84.17,-84.17 85.34,-85.34 86.52,-86.52 87.7,-87.7 88.87,-88.87 90.05,-90.05 91.23,-91.23 92.41,-92.41 93.58,-93.58 94.76,-94.76 95.94,-95.94 97.11,-97.11 98.29,-98.29 99.47,-99.47 100.65,-100.65 101.82,-101.82 103,-103 104.18,-104.18 105.35,-105.35 106.53,-106.53 107.71,-107.71 108.89,-108.89 110.06,-110.06 111.24,-111.24 112.42,-112.42 113.59,-113.59 114.77,-114.77 115.95,-115.95 117.13,-117.13 118.3,-118.3 119.48,-119.48 120.66,-120.66 121.83,-121.83 123.01,-123.01 124.19,-124.19 125.37,-125.37 126.54,-126.54 127.72,-127.72 128.9,-128.9 130.07,-130.07 131.25,-131.25 132.43,-132.43 133.61,-133.61 134.78,-134.78 135.96,-135.96 137.14,-137.14 138.31,-138.31 139.49,-139.49 140.67,-140.67 141.85,-141.85 143.02,-143.02 144.2,-144.2 145.38,-145.38 146.55,-146.55 " class="primitive"/>
          </g>
          <g transform="translate(172.93,301.04)" id="img-d93030c8-30" stroke-dasharray="none" class="color_approx._with_a_polynomial_of_degree_47" stroke="#D4CA3A">
            <path fill="none" d="M-146.55,146.56 L-145.38,145.38 -144.2,144.2 -143.02,143.02 -141.85,141.85 -140.67,140.67 -139.49,139.49 -138.31,138.31 -137.14,137.14 -135.96,135.96 -134.78,134.78 -133.61,133.61 -132.43,132.43 -131.25,131.25 -130.07,130.07 -128.9,128.9 -127.72,127.72 -126.54,126.54 -125.37,125.37 -124.19,124.19 -123.01,123.01 -121.83,121.83 -120.66,120.66 -119.48,119.48 -118.3,118.3 -117.13,117.13 -115.95,115.95 -114.77,114.77 -113.59,113.59 -112.42,112.42 -111.24,111.24 -110.06,110.06 -108.89,108.89 -107.71,107.71 -106.53,106.53 -105.35,105.35 -104.18,104.18 -103,103 -101.82,101.82 -100.65,100.65 -99.47,99.47 -98.29,98.29 -97.11,97.11 -95.94,95.94 -94.76,94.76 -93.58,93.58 -92.41,92.41 -91.23,91.23 -90.05,90.05 -88.87,88.87 -87.7,87.7 -86.52,86.52 -85.34,85.34 -84.17,84.17 -82.99,82.99 -81.81,81.81 -80.63,80.63 -79.46,79.46 -78.28,78.28 -77.1,77.1 -75.93,75.93 -74.75,74.75 -73.57,73.57 -72.39,72.39 -71.22,71.22 -70.04,70.04 -68.86,68.86 -67.69,67.69 -66.51,66.51 -65.33,65.33 -64.15,64.15 -62.98,62.98 -61.8,61.8 -60.62,60.62 -59.45,59.45 -58.27,58.27 -57.09,57.09 -55.91,55.91 -54.74,54.74 -53.56,53.56 -52.38,52.38 -51.21,51.21 -50.03,50.03 -48.85,48.85 -47.67,47.67 -46.5,46.5 -45.32,45.32 -44.14,44.14 -42.97,42.97 -41.79,41.79 -40.61,40.61 -39.43,39.43 -38.26,38.26 -37.08,37.08 -35.9,35.9 -34.73,34.73 -33.55,33.55 -32.37,32.37 -31.19,31.19 -30.02,30.02 -28.84,28.84 -27.66,27.66 -26.49,26.49 -25.31,25.31 -24.13,24.13 -22.95,22.95 -21.78,21.78 -20.6,20.6 -19.42,19.42 -18.25,18.25 -17.07,17.07 -15.89,15.89 -14.71,14.71 -13.54,13.54 -12.36,12.36 -11.18,11.18 -10.01,10.01 -8.83,8.83 -7.65,7.65 -6.47,6.47 -5.3,5.3 -4.12,4.12 -2.94,2.94 -1.77,1.77 -0.59,0.59 0.59,-0.59 1.77,-1.77 2.94,-2.94 4.12,-4.12 5.3,-5.3 6.47,-6.47 7.65,-7.65 8.83,-8.83 10.01,-10.01 11.18,-11.18 12.36,-12.36 13.54,-13.54 14.71,-14.71 15.89,-15.89 17.07,-17.07 18.25,-18.25 19.42,-19.42 20.6,-20.6 21.78,-21.78 22.95,-22.95 24.13,-24.13 25.31,-25.31 26.49,-26.49 27.66,-27.66 28.84,-28.84 30.02,-30.02 31.19,-31.19 32.37,-32.37 33.55,-33.55 34.73,-34.73 35.9,-35.9 37.08,-37.08 38.26,-38.26 39.43,-39.43 40.61,-40.61 41.79,-41.79 42.97,-42.97 44.14,-44.14 45.32,-45.32 46.5,-46.5 47.67,-47.67 48.85,-48.85 50.03,-50.03 51.21,-51.21 52.38,-52.38 53.56,-53.56 54.74,-54.74 55.91,-55.91 57.09,-57.09 58.27,-58.27 59.45,-59.45 60.62,-60.62 61.8,-61.8 62.98,-62.98 64.15,-64.15 65.33,-65.33 66.51,-66.51 67.69,-67.69 68.86,-68.86 70.04,-70.04 71.22,-71.22 72.39,-72.39 73.57,-73.57 74.75,-74.75 75.93,-75.93 77.1,-77.1 78.28,-78.28 79.46,-79.46 80.63,-80.63 81.81,-81.81 82.99,-82.99 84.17,-84.17 85.34,-85.34 86.52,-86.52 87.7,-87.7 88.87,-88.87 90.05,-90.05 91.23,-91.23 92.41,-92.41 93.58,-93.58 94.76,-94.76 95.94,-95.94 97.11,-97.11 98.29,-98.29 99.47,-99.47 100.65,-100.65 101.82,-101.82 103,-103 104.18,-104.18 105.35,-105.35 106.53,-106.53 107.71,-107.71 108.89,-108.89 110.06,-110.06 111.24,-111.24 112.42,-112.42 113.59,-113.59 114.77,-114.77 115.95,-115.95 117.13,-117.13 118.3,-118.3 119.48,-119.48 120.66,-120.66 121.83,-121.83 123.01,-123.01 124.19,-124.19 125.37,-125.37 126.54,-126.54 127.72,-127.72 128.9,-128.9 130.07,-130.07 131.25,-131.25 132.43,-132.43 133.61,-133.61 134.78,-134.78 135.96,-135.96 137.14,-137.14 138.31,-138.31 139.49,-139.49 140.67,-140.67 141.85,-141.85 143.02,-143.02 144.2,-144.2 145.38,-145.38 146.55,-146.55 " class="primitive"/>
          </g>
        </g>
        <g class="geometry" id="img-d93030c8-31">
          <g stroke-width="0.3" id="img-d93030c8-32">
            <g class="color_RGBA{Float32}(0.0f0,0.74736935f0,1.0f0,1.0f0)" fill-opacity="1" stroke="#FFFFFF" fill="#00BFFF" id="img-d93030c8-33">
              <g class="marker" id="img-d93030c8-34">
                <g transform="translate(319.49,154.48)" id="img-d93030c8-35">
                  <circle cx="0" cy="0" r="0.9" class="primitive"/>
                </g>
              </g>
            </g>
            <g class="color_RGBA{Float32}(0.0f0,0.74736935f0,1.0f0,1.0f0)" fill-opacity="1" stroke="#FFFFFF" fill="#00BFFF" id="img-d93030c8-36">
              <g class="marker" id="img-d93030c8-37">
                <g transform="translate(317.2,156.77)" id="img-d93030c8-38">
                  <circle cx="0" cy="0" r="0.9" class="primitive"/>
                </g>
              </g>
            </g>
            <g class="color_RGBA{Float32}(0.0f0,0.74736935f0,1.0f0,1.0f0)" fill-opacity="1" stroke="#FFFFFF" fill="#00BFFF" id="img-d93030c8-39">
              <g class="marker" id="img-d93030c8-40">
                <g transform="translate(312.62,161.35)" id="img-d93030c8-41">
                  <circle cx="0" cy="0" r="0.9" class="primitive"/>
                </g>
              </g>
            </g>
            <g class="color_RGBA{Float32}(0.0f0,0.74736935f0,1.0f0,1.0f0)" fill-opacity="1" stroke="#FFFFFF" fill="#00BFFF" id="img-d93030c8-42">
              <g class="marker" id="img-d93030c8-43">
                <g transform="translate(308.04,165.93)" id="img-d93030c8-44">
                  <circle cx="0" cy="0" r="0.9" class="primitive"/>
                </g>
              </g>
            </g>
            <g class="color_RGBA{Float32}(0.0f0,0.74736935f0,1.0f0,1.0f0)" fill-opacity="1" stroke="#FFFFFF" fill="#00BFFF" id="img-d93030c8-45">
              <g class="marker" id="img-d93030c8-46">
                <g transform="translate(303.46,170.51)" id="img-d93030c8-47">
                  <circle cx="0" cy="0" r="0.9" class="primitive"/>
                </g>
              </g>
            </g>
            <g class="color_RGBA{Float32}(0.0f0,0.74736935f0,1.0f0,1.0f0)" fill-opacity="1" stroke="#FFFFFF" fill="#00BFFF" id="img-d93030c8-48">
              <g class="marker" id="img-d93030c8-49">
                <g transform="translate(298.88,175.09)" id="img-d93030c8-50">
                  <circle cx="0" cy="0" r="0.9" class="primitive"/>
                </g>
              </g>
            </g>
            <g class="color_RGBA{Float32}(0.0f0,0.74736935f0,1.0f0,1.0f0)" fill-opacity="1" stroke="#FFFFFF" fill="#00BFFF" id="img-d93030c8-51">
              <g class="marker" id="img-d93030c8-52">
                <g transform="translate(294.3,179.67)" id="img-d93030c8-53">
                  <circle cx="0" cy="0" r="0.9" class="primitive"/>
                </g>
              </g>
            </g>
            <g class="color_RGBA{Float32}(0.0f0,0.74736935f0,1.0f0,1.0f0)" fill-opacity="1" stroke="#FFFFFF" fill="#00BFFF" id="img-d93030c8-54">
              <g class="marker" id="img-d93030c8-55">
                <g transform="translate(289.72,184.25)" id="img-d93030c8-56">
                  <circle cx="0" cy="0" r="0.9" class="primitive"/>
                </g>
              </g>
            </g>
            <g class="color_RGBA{Float32}(0.0f0,0.74736935f0,1.0f0,1.0f0)" fill-opacity="1" stroke="#FFFFFF" fill="#00BFFF" id="img-d93030c8-57">
              <g class="marker" id="img-d93030c8-58">
                <g transform="translate(285.14,188.83)" id="img-d93030c8-59">
                  <circle cx="0" cy="0" r="0.9" class="primitive"/>
                </g>
              </g>
            </g>
            <g class="color_RGBA{Float32}(0.0f0,0.74736935f0,1.0f0,1.0f0)" fill-opacity="1" stroke="#FFFFFF" fill="#00BFFF" id="img-d93030c8-60">
              <g class="marker" id="img-d93030c8-61">
                <g transform="translate(280.56,193.41)" id="img-d93030c8-62">
                  <circle cx="0" cy="0" r="0.9" class="primitive"/>
                </g>
              </g>
            </g>
            <g class="color_RGBA{Float32}(0.0f0,0.74736935f0,1.0f0,1.0f0)" fill-opacity="1" stroke="#FFFFFF" fill="#00BFFF" id="img-d93030c8-63">
              <g class="marker" id="img-d93030c8-64">
                <g transform="translate(275.98,197.99)" id="img-d93030c8-65">
                  <circle cx="0" cy="0" r="0.9" class="primitive"/>
                </g>
              </g>
            </g>
            <g class="color_RGBA{Float32}(0.0f0,0.74736935f0,1.0f0,1.0f0)" fill-opacity="1" stroke="#FFFFFF" fill="#00BFFF" id="img-d93030c8-66">
              <g class="marker" id="img-d93030c8-67">
                <g transform="translate(271.4,202.57)" id="img-d93030c8-68">
                  <circle cx="0" cy="0" r="0.9" class="primitive"/>
                </g>
              </g>
            </g>
            <g class="color_RGBA{Float32}(0.0f0,0.74736935f0,1.0f0,1.0f0)" fill-opacity="1" stroke="#FFFFFF" fill="#00BFFF" id="img-d93030c8-69">
              <g class="marker" id="img-d93030c8-70">
                <g transform="translate(266.82,207.15)" id="img-d93030c8-71">
                  <circle cx="0" cy="0" r="0.9" class="primitive"/>
                </g>
              </g>
            </g>
            <g class="color_RGBA{Float32}(0.0f0,0.74736935f0,1.0f0,1.0f0)" fill-opacity="1" stroke="#FFFFFF" fill="#00BFFF" id="img-d93030c8-72">
              <g class="marker" id="img-d93030c8-73">
                <g transform="translate(262.24,211.73)" id="img-d93030c8-74">
                  <circle cx="0" cy="0" r="0.9" class="primitive"/>
                </g>
              </g>
            </g>
            <g class="color_RGBA{Float32}(0.0f0,0.74736935f0,1.0f0,1.0f0)" fill-opacity="1" stroke="#FFFFFF" fill="#00BFFF" id="img-d93030c8-75">
              <g class="marker" id="img-d93030c8-76">
                <g transform="translate(257.66,216.31)" id="img-d93030c8-77">
                  <circle cx="0" cy="0" r="0.9" class="primitive"/>
                </g>
              </g>
            </g>
            <g class="color_RGBA{Float32}(0.0f0,0.74736935f0,1.0f0,1.0f0)" fill-opacity="1" stroke="#FFFFFF" fill="#00BFFF" id="img-d93030c8-78">
              <g class="marker" id="img-d93030c8-79">
                <g transform="translate(253.08,220.89)" id="img-d93030c8-80">
                  <circle cx="0" cy="0" r="0.9" class="primitive"/>
                </g>
              </g>
            </g>
            <g class="color_RGBA{Float32}(0.0f0,0.74736935f0,1.0f0,1.0f0)" fill-opacity="1" stroke="#FFFFFF" fill="#00BFFF" id="img-d93030c8-81">
              <g class="marker" id="img-d93030c8-82">
                <g transform="translate(248.5,225.47)" id="img-d93030c8-83">
                  <circle cx="0" cy="0" r="0.9" class="primitive"/>
                </g>
              </g>
            </g>
            <g class="color_RGBA{Float32}(0.0f0,0.74736935f0,1.0f0,1.0f0)" fill-opacity="1" stroke="#FFFFFF" fill="#00BFFF" id="img-d93030c8-84">
              <g class="marker" id="img-d93030c8-85">
                <g transform="translate(243.92,230.05)" id="img-d93030c8-86">
                  <circle cx="0" cy="0" r="0.9" class="primitive"/>
                </g>
              </g>
            </g>
            <g class="color_RGBA{Float32}(0.0f0,0.74736935f0,1.0f0,1.0f0)" fill-opacity="1" stroke="#FFFFFF" fill="#00BFFF" id="img-d93030c8-87">
              <g class="marker" id="img-d93030c8-88">
                <g transform="translate(239.34,234.63)" id="img-d93030c8-89">
                  <circle cx="0" cy="0" r="0.9" class="primitive"/>
                </g>
              </g>
            </g>
            <g class="color_RGBA{Float32}(0.0f0,0.74736935f0,1.0f0,1.0f0)" fill-opacity="1" stroke="#FFFFFF" fill="#00BFFF" id="img-d93030c8-90">
              <g class="marker" id="img-d93030c8-91">
                <g transform="translate(234.76,239.21)" id="img-d93030c8-92">
                  <circle cx="0" cy="0" r="0.9" class="primitive"/>
                </g>
              </g>
            </g>
            <g class="color_RGBA{Float32}(0.0f0,0.74736935f0,1.0f0,1.0f0)" fill-opacity="1" stroke="#FFFFFF" fill="#00BFFF" id="img-d93030c8-93">
              <g class="marker" id="img-d93030c8-94">
                <g transform="translate(230.18,243.79)" id="img-d93030c8-95">
                  <circle cx="0" cy="0" r="0.9" class="primitive"/>
                </g>
              </g>
            </g>
            <g class="color_RGBA{Float32}(0.0f0,0.74736935f0,1.0f0,1.0f0)" fill-opacity="1" stroke="#FFFFFF" fill="#00BFFF" id="img-d93030c8-96">
              <g class="marker" id="img-d93030c8-97">
                <g transform="translate(225.6,248.37)" id="img-d93030c8-98">
                  <circle cx="0" cy="0" r="0.9" class="primitive"/>
                </g>
              </g>
            </g>
            <g class="color_RGBA{Float32}(0.0f0,0.74736935f0,1.0f0,1.0f0)" fill-opacity="1" stroke="#FFFFFF" fill="#00BFFF" id="img-d93030c8-99">
              <g class="marker" id="img-d93030c8-100">
                <g transform="translate(221.02,252.95)" id="img-d93030c8-101">
                  <circle cx="0" cy="0" r="0.9" class="primitive"/>
                </g>
              </g>
            </g>
            <g class="color_RGBA{Float32}(0.0f0,0.74736935f0,1.0f0,1.0f0)" fill-opacity="1" stroke="#FFFFFF" fill="#00BFFF" id="img-d93030c8-102">
              <g class="marker" id="img-d93030c8-103">
                <g transform="translate(216.44,257.53)" id="img-d93030c8-104">
                  <circle cx="0" cy="0" r="0.9" class="primitive"/>
                </g>
              </g>
            </g>
            <g class="color_RGBA{Float32}(0.0f0,0.74736935f0,1.0f0,1.0f0)" fill-opacity="1" stroke="#FFFFFF" fill="#00BFFF" id="img-d93030c8-105">
              <g class="marker" id="img-d93030c8-106">
                <g transform="translate(211.86,262.11)" id="img-d93030c8-107">
                  <circle cx="0" cy="0" r="0.9" class="primitive"/>
                </g>
              </g>
            </g>
            <g class="color_RGBA{Float32}(0.0f0,0.74736935f0,1.0f0,1.0f0)" fill-opacity="1" stroke="#FFFFFF" fill="#00BFFF" id="img-d93030c8-108">
              <g class="marker" id="img-d93030c8-109">
                <g transform="translate(207.28,266.69)" id="img-d93030c8-110">
                  <circle cx="0" cy="0" r="0.9" class="primitive"/>
                </g>
              </g>
            </g>
            <g class="color_RGBA{Float32}(0.0f0,0.74736935f0,1.0f0,1.0f0)" fill-opacity="1" stroke="#FFFFFF" fill="#00BFFF" id="img-d93030c8-111">
              <g class="marker" id="img-d93030c8-112">
                <g transform="translate(202.7,271.27)" id="img-d93030c8-113">
                  <circle cx="0" cy="0" r="0.9" class="primitive"/>
                </g>
              </g>
            </g>
            <g class="color_RGBA{Float32}(0.0f0,0.74736935f0,1.0f0,1.0f0)" fill-opacity="1" stroke="#FFFFFF" fill="#00BFFF" id="img-d93030c8-114">
              <g class="marker" id="img-d93030c8-115">
                <g transform="translate(198.12,275.85)" id="img-d93030c8-116">
                  <circle cx="0" cy="0" r="0.9" class="primitive"/>
                </g>
              </g>
            </g>
            <g class="color_RGBA{Float32}(0.0f0,0.74736935f0,1.0f0,1.0f0)" fill-opacity="1" stroke="#FFFFFF" fill="#00BFFF" id="img-d93030c8-117">
              <g class="marker" id="img-d93030c8-118">
                <g transform="translate(193.54,280.43)" id="img-d93030c8-119">
                  <circle cx="0" cy="0" r="0.9" class="primitive"/>
                </g>
              </g>
            </g>
            <g class="color_RGBA{Float32}(0.0f0,0.74736935f0,1.0f0,1.0f0)" fill-opacity="1" stroke="#FFFFFF" fill="#00BFFF" id="img-d93030c8-120">
              <g class="marker" id="img-d93030c8-121">
                <g transform="translate(188.96,285.01)" id="img-d93030c8-122">
                  <circle cx="0" cy="0" r="0.9" class="primitive"/>
                </g>
              </g>
            </g>
            <g class="color_RGBA{Float32}(0.0f0,0.74736935f0,1.0f0,1.0f0)" fill-opacity="1" stroke="#FFFFFF" fill="#00BFFF" id="img-d93030c8-123">
              <g class="marker" id="img-d93030c8-124">
                <g transform="translate(184.38,289.59)" id="img-d93030c8-125">
                  <circle cx="0" cy="0" r="0.9" class="primitive"/>
                </g>
              </g>
            </g>
            <g class="color_RGBA{Float32}(0.0f0,0.74736935f0,1.0f0,1.0f0)" fill-opacity="1" stroke="#FFFFFF" fill="#00BFFF" id="img-d93030c8-126">
              <g class="marker" id="img-d93030c8-127">
                <g transform="translate(179.8,294.17)" id="img-d93030c8-128">
                  <circle cx="0" cy="0" r="0.9" class="primitive"/>
                </g>
              </g>
            </g>
            <g class="color_RGBA{Float32}(0.0f0,0.74736935f0,1.0f0,1.0f0)" fill-opacity="1" stroke="#FFFFFF" fill="#00BFFF" id="img-d93030c8-129">
              <g class="marker" id="img-d93030c8-130">
                <g transform="translate(175.22,298.75)" id="img-d93030c8-131">
                  <circle cx="0" cy="0" r="0.9" class="primitive"/>
                </g>
              </g>
            </g>
            <g class="color_RGBA{Float32}(0.0f0,0.74736935f0,1.0f0,1.0f0)" fill-opacity="1" stroke="#FFFFFF" fill="#00BFFF" id="img-d93030c8-132">
              <g class="marker" id="img-d93030c8-133">
                <g transform="translate(170.64,303.33)" id="img-d93030c8-134">
                  <circle cx="0" cy="0" r="0.9" class="primitive"/>
                </g>
              </g>
            </g>
            <g class="color_RGBA{Float32}(0.0f0,0.74736935f0,1.0f0,1.0f0)" fill-opacity="1" stroke="#FFFFFF" fill="#00BFFF" id="img-d93030c8-135">
              <g class="marker" id="img-d93030c8-136">
                <g transform="translate(166.06,307.91)" id="img-d93030c8-137">
                  <circle cx="0" cy="0" r="0.9" class="primitive"/>
                </g>
              </g>
            </g>
            <g class="color_RGBA{Float32}(0.0f0,0.74736935f0,1.0f0,1.0f0)" fill-opacity="1" stroke="#FFFFFF" fill="#00BFFF" id="img-d93030c8-138">
              <g class="marker" id="img-d93030c8-139">
                <g transform="translate(161.48,312.49)" id="img-d93030c8-140">
                  <circle cx="0" cy="0" r="0.9" class="primitive"/>
                </g>
              </g>
            </g>
            <g class="color_RGBA{Float32}(0.0f0,0.74736935f0,1.0f0,1.0f0)" fill-opacity="1" stroke="#FFFFFF" fill="#00BFFF" id="img-d93030c8-141">
              <g class="marker" id="img-d93030c8-142">
                <g transform="translate(156.9,317.07)" id="img-d93030c8-143">
                  <circle cx="0" cy="0" r="0.9" class="primitive"/>
                </g>
              </g>
            </g>
            <g class="color_RGBA{Float32}(0.0f0,0.74736935f0,1.0f0,1.0f0)" fill-opacity="1" stroke="#FFFFFF" fill="#00BFFF" id="img-d93030c8-144">
              <g class="marker" id="img-d93030c8-145">
                <g transform="translate(152.32,321.65)" id="img-d93030c8-146">
                  <circle cx="0" cy="0" r="0.9" class="primitive"/>
                </g>
              </g>
            </g>
            <g class="color_RGBA{Float32}(0.0f0,0.74736935f0,1.0f0,1.0f0)" fill-opacity="1" stroke="#FFFFFF" fill="#00BFFF" id="img-d93030c8-147">
              <g class="marker" id="img-d93030c8-148">
                <g transform="translate(147.74,326.23)" id="img-d93030c8-149">
                  <circle cx="0" cy="0" r="0.9" class="primitive"/>
                </g>
              </g>
            </g>
            <g class="color_RGBA{Float32}(0.0f0,0.74736935f0,1.0f0,1.0f0)" fill-opacity="1" stroke="#FFFFFF" fill="#00BFFF" id="img-d93030c8-150">
              <g class="marker" id="img-d93030c8-151">
                <g transform="translate(143.16,330.81)" id="img-d93030c8-152">
                  <circle cx="0" cy="0" r="0.9" class="primitive"/>
                </g>
              </g>
            </g>
            <g class="color_RGBA{Float32}(0.0f0,0.74736935f0,1.0f0,1.0f0)" fill-opacity="1" stroke="#FFFFFF" fill="#00BFFF" id="img-d93030c8-153">
              <g class="marker" id="img-d93030c8-154">
                <g transform="translate(140.87,333.1)" id="img-d93030c8-155">
                  <circle cx="0" cy="0" r="0.9" class="primitive"/>
                </g>
              </g>
            </g>
            <g class="color_RGBA{Float32}(0.0f0,0.74736935f0,1.0f0,1.0f0)" fill-opacity="1" stroke="#FFFFFF" fill="#00BFFF" id="img-d93030c8-156">
              <g class="marker" id="img-d93030c8-157">
                <g transform="translate(138.58,335.39)" id="img-d93030c8-158">
                  <circle cx="0" cy="0" r="0.9" class="primitive"/>
                </g>
              </g>
            </g>
            <g class="color_RGBA{Float32}(0.0f0,0.74736935f0,1.0f0,1.0f0)" fill-opacity="1" stroke="#FFFFFF" fill="#00BFFF" id="img-d93030c8-159">
              <g class="marker" id="img-d93030c8-160">
                <g transform="translate(134,339.97)" id="img-d93030c8-161">
                  <circle cx="0" cy="0" r="0.9" class="primitive"/>
                </g>
              </g>
            </g>
            <g class="color_RGBA{Float32}(0.0f0,0.74736935f0,1.0f0,1.0f0)" fill-opacity="1" stroke="#FFFFFF" fill="#00BFFF" id="img-d93030c8-162">
              <g class="marker" id="img-d93030c8-163">
                <g transform="translate(131.71,342.26)" id="img-d93030c8-164">
                  <circle cx="0" cy="0" r="0.9" class="primitive"/>
                </g>
              </g>
            </g>
            <g class="color_RGBA{Float32}(0.0f0,0.74736935f0,1.0f0,1.0f0)" fill-opacity="1" stroke="#FFFFFF" fill="#00BFFF" id="img-d93030c8-165">
              <g class="marker" id="img-d93030c8-166">
                <g transform="translate(129.42,344.55)" id="img-d93030c8-167">
                  <circle cx="0" cy="0" r="0.9" class="primitive"/>
                </g>
              </g>
            </g>
            <g class="color_RGBA{Float32}(0.0f0,0.74736935f0,1.0f0,1.0f0)" fill-opacity="1" stroke="#FFFFFF" fill="#00BFFF" id="img-d93030c8-168">
              <g class="marker" id="img-d93030c8-169">
                <g transform="translate(124.84,349.13)" id="img-d93030c8-170">
                  <circle cx="0" cy="0" r="0.9" class="primitive"/>
                </g>
              </g>
            </g>
            <g class="color_RGBA{Float32}(0.0f0,0.74736935f0,1.0f0,1.0f0)" fill-opacity="1" stroke="#FFFFFF" fill="#00BFFF" id="img-d93030c8-171">
              <g class="marker" id="img-d93030c8-172">
                <g transform="translate(122.55,351.42)" id="img-d93030c8-173">
                  <circle cx="0" cy="0" r="0.9" class="primitive"/>
                </g>
              </g>
            </g>
            <g class="color_RGBA{Float32}(0.0f0,0.74736935f0,1.0f0,1.0f0)" fill-opacity="1" stroke="#FFFFFF" fill="#00BFFF" id="img-d93030c8-174">
              <g class="marker" id="img-d93030c8-175">
                <g transform="translate(120.26,353.71)" id="img-d93030c8-176">
                  <circle cx="0" cy="0" r="0.9" class="primitive"/>
                </g>
              </g>
            </g>
            <g class="color_RGBA{Float32}(0.0f0,0.74736935f0,1.0f0,1.0f0)" fill-opacity="1" stroke="#FFFFFF" fill="#00BFFF" id="img-d93030c8-177">
              <g class="marker" id="img-d93030c8-178">
                <g transform="translate(115.68,358.29)" id="img-d93030c8-179">
                  <circle cx="0" cy="0" r="0.9" class="primitive"/>
                </g>
              </g>
            </g>
            <g class="color_RGBA{Float32}(0.0f0,0.74736935f0,1.0f0,1.0f0)" fill-opacity="1" stroke="#FFFFFF" fill="#00BFFF" id="img-d93030c8-180">
              <g class="marker" id="img-d93030c8-181">
                <g transform="translate(113.4,360.57)" id="img-d93030c8-182">
                  <circle cx="0" cy="0" r="0.9" class="primitive"/>
                </g>
              </g>
            </g>
            <g class="color_RGBA{Float32}(0.0f0,0.74736935f0,1.0f0,1.0f0)" fill-opacity="1" stroke="#FFFFFF" fill="#00BFFF" id="img-d93030c8-183">
              <g class="marker" id="img-d93030c8-184">
                <g transform="translate(111.11,362.86)" id="img-d93030c8-185">
                  <circle cx="0" cy="0" r="0.9" class="primitive"/>
                </g>
              </g>
            </g>
            <g class="color_RGBA{Float32}(0.0f0,0.74736935f0,1.0f0,1.0f0)" fill-opacity="1" stroke="#FFFFFF" fill="#00BFFF" id="img-d93030c8-186">
              <g class="marker" id="img-d93030c8-187">
                <g transform="translate(106.53,367.44)" id="img-d93030c8-188">
                  <circle cx="0" cy="0" r="0.9" class="primitive"/>
                </g>
              </g>
            </g>
            <g class="color_RGBA{Float32}(0.0f0,0.74736935f0,1.0f0,1.0f0)" fill-opacity="1" stroke="#FFFFFF" fill="#00BFFF" id="img-d93030c8-189">
              <g class="marker" id="img-d93030c8-190">
                <g transform="translate(104.24,369.73)" id="img-d93030c8-191">
                  <circle cx="0" cy="0" r="0.9" class="primitive"/>
                </g>
              </g>
            </g>
            <g class="color_RGBA{Float32}(0.0f0,0.74736935f0,1.0f0,1.0f0)" fill-opacity="1" stroke="#FFFFFF" fill="#00BFFF" id="img-d93030c8-192">
              <g class="marker" id="img-d93030c8-193">
                <g transform="translate(101.95,372.02)" id="img-d93030c8-194">
                  <circle cx="0" cy="0" r="0.9" class="primitive"/>
                </g>
              </g>
            </g>
            <g class="color_RGBA{Float32}(0.0f0,0.74736935f0,1.0f0,1.0f0)" fill-opacity="1" stroke="#FFFFFF" fill="#00BFFF" id="img-d93030c8-195">
              <g class="marker" id="img-d93030c8-196">
                <g transform="translate(97.37,376.6)" id="img-d93030c8-197">
                  <circle cx="0" cy="0" r="0.9" class="primitive"/>
                </g>
              </g>
            </g>
            <g class="color_RGBA{Float32}(0.0f0,0.74736935f0,1.0f0,1.0f0)" fill-opacity="1" stroke="#FFFFFF" fill="#00BFFF" id="img-d93030c8-198">
              <g class="marker" id="img-d93030c8-199">
                <g transform="translate(95.08,378.89)" id="img-d93030c8-200">
                  <circle cx="0" cy="0" r="0.9" class="primitive"/>
                </g>
              </g>
            </g>
            <g class="color_RGBA{Float32}(0.0f0,0.74736935f0,1.0f0,1.0f0)" fill-opacity="1" stroke="#FFFFFF" fill="#00BFFF" id="img-d93030c8-201">
              <g class="marker" id="img-d93030c8-202">
                <g transform="translate(92.79,381.18)" id="img-d93030c8-203">
                  <circle cx="0" cy="0" r="0.9" class="primitive"/>
                </g>
              </g>
            </g>
            <g class="color_RGBA{Float32}(0.0f0,0.74736935f0,1.0f0,1.0f0)" fill-opacity="1" stroke="#FFFFFF" fill="#00BFFF" id="img-d93030c8-204">
              <g class="marker" id="img-d93030c8-205">
                <g transform="translate(88.21,385.76)" id="img-d93030c8-206">
                  <circle cx="0" cy="0" r="0.9" class="primitive"/>
                </g>
              </g>
            </g>
            <g class="color_RGBA{Float32}(0.0f0,0.74736935f0,1.0f0,1.0f0)" fill-opacity="1" stroke="#FFFFFF" fill="#00BFFF" id="img-d93030c8-207">
              <g class="marker" id="img-d93030c8-208">
                <g transform="translate(85.92,388.05)" id="img-d93030c8-209">
                  <circle cx="0" cy="0" r="0.9" class="primitive"/>
                </g>
              </g>
            </g>
            <g class="color_RGBA{Float32}(0.0f0,0.74736935f0,1.0f0,1.0f0)" fill-opacity="1" stroke="#FFFFFF" fill="#00BFFF" id="img-d93030c8-210">
              <g class="marker" id="img-d93030c8-211">
                <g transform="translate(83.63,390.34)" id="img-d93030c8-212">
                  <circle cx="0" cy="0" r="0.9" class="primitive"/>
                </g>
              </g>
            </g>
            <g class="color_RGBA{Float32}(0.0f0,0.74736935f0,1.0f0,1.0f0)" fill-opacity="1" stroke="#FFFFFF" fill="#00BFFF" id="img-d93030c8-213">
              <g class="marker" id="img-d93030c8-214">
                <g transform="translate(79.05,394.92)" id="img-d93030c8-215">
                  <circle cx="0" cy="0" r="0.9" class="primitive"/>
                </g>
              </g>
            </g>
            <g class="color_RGBA{Float32}(0.0f0,0.74736935f0,1.0f0,1.0f0)" fill-opacity="1" stroke="#FFFFFF" fill="#00BFFF" id="img-d93030c8-216">
              <g class="marker" id="img-d93030c8-217">
                <g transform="translate(76.76,397.21)" id="img-d93030c8-218">
                  <circle cx="0" cy="0" r="0.9" class="primitive"/>
                </g>
              </g>
            </g>
            <g class="color_RGBA{Float32}(0.0f0,0.74736935f0,1.0f0,1.0f0)" fill-opacity="1" stroke="#FFFFFF" fill="#00BFFF" id="img-d93030c8-219">
              <g class="marker" id="img-d93030c8-220">
                <g transform="translate(74.47,399.5)" id="img-d93030c8-221">
                  <circle cx="0" cy="0" r="0.9" class="primitive"/>
                </g>
              </g>
            </g>
            <g class="color_RGBA{Float32}(0.0f0,0.74736935f0,1.0f0,1.0f0)" fill-opacity="1" stroke="#FFFFFF" fill="#00BFFF" id="img-d93030c8-222">
              <g class="marker" id="img-d93030c8-223">
                <g transform="translate(69.89,404.08)" id="img-d93030c8-224">
                  <circle cx="0" cy="0" r="0.9" class="primitive"/>
                </g>
              </g>
            </g>
            <g class="color_RGBA{Float32}(0.0f0,0.74736935f0,1.0f0,1.0f0)" fill-opacity="1" stroke="#FFFFFF" fill="#00BFFF" id="img-d93030c8-225">
              <g class="marker" id="img-d93030c8-226">
                <g transform="translate(67.6,406.37)" id="img-d93030c8-227">
                  <circle cx="0" cy="0" r="0.9" class="primitive"/>
                </g>
              </g>
            </g>
            <g class="color_RGBA{Float32}(0.0f0,0.74736935f0,1.0f0,1.0f0)" fill-opacity="1" stroke="#FFFFFF" fill="#00BFFF" id="img-d93030c8-228">
              <g class="marker" id="img-d93030c8-229">
                <g transform="translate(65.31,408.66)" id="img-d93030c8-230">
                  <circle cx="0" cy="0" r="0.9" class="primitive"/>
                </g>
              </g>
            </g>
            <g class="color_RGBA{Float32}(0.0f0,0.74736935f0,1.0f0,1.0f0)" fill-opacity="1" stroke="#FFFFFF" fill="#00BFFF" id="img-d93030c8-231">
              <g class="marker" id="img-d93030c8-232">
                <g transform="translate(60.73,413.24)" id="img-d93030c8-233">
                  <circle cx="0" cy="0" r="0.9" class="primitive"/>
                </g>
              </g>
            </g>
            <g class="color_RGBA{Float32}(0.0f0,0.74736935f0,1.0f0,1.0f0)" fill-opacity="1" stroke="#FFFFFF" fill="#00BFFF" id="img-d93030c8-234">
              <g class="marker" id="img-d93030c8-235">
                <g transform="translate(58.44,415.53)" id="img-d93030c8-236">
                  <circle cx="0" cy="0" r="0.9" class="primitive"/>
                </g>
              </g>
            </g>
            <g class="color_RGBA{Float32}(0.0f0,0.74736935f0,1.0f0,1.0f0)" fill-opacity="1" stroke="#FFFFFF" fill="#00BFFF" id="img-d93030c8-237">
              <g class="marker" id="img-d93030c8-238">
                <g transform="translate(56.15,417.82)" id="img-d93030c8-239">
                  <circle cx="0" cy="0" r="0.9" class="primitive"/>
                </g>
              </g>
            </g>
            <g class="color_RGBA{Float32}(0.0f0,0.74736935f0,1.0f0,1.0f0)" fill-opacity="1" stroke="#FFFFFF" fill="#00BFFF" id="img-d93030c8-240">
              <g class="marker" id="img-d93030c8-241">
                <g transform="translate(51.57,422.4)" id="img-d93030c8-242">
                  <circle cx="0" cy="0" r="0.9" class="primitive"/>
                </g>
              </g>
            </g>
            <g class="color_RGBA{Float32}(0.0f0,0.74736935f0,1.0f0,1.0f0)" fill-opacity="1" stroke="#FFFFFF" fill="#00BFFF" id="img-d93030c8-243">
              <g class="marker" id="img-d93030c8-244">
                <g transform="translate(49.28,424.69)" id="img-d93030c8-245">
                  <circle cx="0" cy="0" r="0.9" class="primitive"/>
                </g>
              </g>
            </g>
            <g class="color_RGBA{Float32}(0.0f0,0.74736935f0,1.0f0,1.0f0)" fill-opacity="1" stroke="#FFFFFF" fill="#00BFFF" id="img-d93030c8-246">
              <g class="marker" id="img-d93030c8-247">
                <g transform="translate(46.99,426.98)" id="img-d93030c8-248">
                  <circle cx="0" cy="0" r="0.9" class="primitive"/>
                </g>
              </g>
            </g>
            <g class="color_RGBA{Float32}(0.0f0,0.74736935f0,1.0f0,1.0f0)" fill-opacity="1" stroke="#FFFFFF" fill="#00BFFF" id="img-d93030c8-249">
              <g class="marker" id="img-d93030c8-250">
                <g transform="translate(42.41,431.56)" id="img-d93030c8-251">
                  <circle cx="0" cy="0" r="0.9" class="primitive"/>
                </g>
              </g>
            </g>
            <g class="color_RGBA{Float32}(0.0f0,0.74736935f0,1.0f0,1.0f0)" fill-opacity="1" stroke="#FFFFFF" fill="#00BFFF" id="img-d93030c8-252">
              <g class="marker" id="img-d93030c8-253">
                <g transform="translate(40.12,433.85)" id="img-d93030c8-254">
                  <circle cx="0" cy="0" r="0.9" class="primitive"/>
                </g>
              </g>
            </g>
            <g class="color_RGBA{Float32}(0.0f0,0.74736935f0,1.0f0,1.0f0)" fill-opacity="1" stroke="#FFFFFF" fill="#00BFFF" id="img-d93030c8-255">
              <g class="marker" id="img-d93030c8-256">
                <g transform="translate(37.83,436.14)" id="img-d93030c8-257">
                  <circle cx="0" cy="0" r="0.9" class="primitive"/>
                </g>
              </g>
            </g>
            <g class="color_RGBA{Float32}(0.0f0,0.74736935f0,1.0f0,1.0f0)" fill-opacity="1" stroke="#FFFFFF" fill="#00BFFF" id="img-d93030c8-258">
              <g class="marker" id="img-d93030c8-259">
                <g transform="translate(33.25,440.72)" id="img-d93030c8-260">
                  <circle cx="0" cy="0" r="0.9" class="primitive"/>
                </g>
              </g>
            </g>
            <g class="color_RGBA{Float32}(0.0f0,0.74736935f0,1.0f0,1.0f0)" fill-opacity="1" stroke="#FFFFFF" fill="#00BFFF" id="img-d93030c8-261">
              <g class="marker" id="img-d93030c8-262">
                <g transform="translate(30.96,443.01)" id="img-d93030c8-263">
                  <circle cx="0" cy="0" r="0.9" class="primitive"/>
                </g>
              </g>
            </g>
            <g class="color_RGBA{Float32}(0.0f0,0.74736935f0,1.0f0,1.0f0)" fill-opacity="1" stroke="#FFFFFF" fill="#00BFFF" id="img-d93030c8-264">
              <g class="marker" id="img-d93030c8-265">
                <g transform="translate(28.67,445.3)" id="img-d93030c8-266">
                  <circle cx="0" cy="0" r="0.9" class="primitive"/>
                </g>
              </g>
            </g>
          </g>
        </g>
      </g>
    </g>
  </g>
  <g class="guide ylabels" font-size="2.82" font-family="'PT Sans Caption','Helvetica Neue','Helvetica',sans-serif" fill="#6C606B" id="img-d93030c8-267">
    <g transform="translate(23.38,447.59)" id="img-d93030c8-268">
      <g class="primitive">
        <text text-anchor="end" dy="0.35em">0</text>
      </g>
    </g>
    <g transform="translate(23.38,311.1)" id="img-d93030c8-269">
      <g class="primitive">
        <text text-anchor="end" dy="0.35em">1×10⁹</text>
      </g>
    </g>
    <g transform="translate(23.38,174.61)" id="img-d93030c8-270">
      <g class="primitive">
        <text text-anchor="end" dy="0.35em">2×10⁹</text>
      </g>
    </g>
    <g transform="translate(23.38,38.12)" id="img-d93030c8-271">
      <g class="primitive">
        <text text-anchor="end" dy="0.35em">3×10⁹</text>
      </g>
    </g>
  </g>
  <g font-size="3.88" font-family="'PT Sans','Helvetica Neue','Helvetica',sans-serif" fill="#564A55" stroke="#000000" stroke-opacity="0.000" id="img-d93030c8-272">
    <g transform="translate(8.81,240.86)" id="img-d93030c8-273">
      <g class="primitive">
        <text text-anchor="middle" dy="0.35em" transform="rotate(-90,0, 2)">distinct_value_count</text>
      </g>
    </g>
  </g>
</g>
<defs>
  <clipPath id="img-d93030c8-13">
    <path d="M24.38,36.12 L437.85,36.12 437.85,449.59 24.38,449.59 " />
  </clipPath>
</defs>
</svg>
